<?xml version="1.0" encoding="UTF-8"?>
<svg width="22px" height="22px" viewBox="0 0 22 22" version="1.1" xmlns="http://www.w3.org/2000/svg" xmlns:xlink="http://www.w3.org/1999/xlink">
    <!-- Generator: Sketch 55.1 (78136) - https://sketchapp.com -->
    <title>24/attach copy 47</title>
    <desc>Created with Sketch.</desc>
    <defs>
        <path d="M11.6666667,16.3333333 L11.8888889,16.3333333 C14.3434878,16.3333333 16.3333333,18.3231789 16.3333333,20.7777778 C16.3333333,21.2686976 15.9353642,21.6666667 15.4444444,21.6666667 L6.55555556,21.6666667 C6.06463578,21.6666667 5.66666667,21.2686976 5.66666667,20.7777778 C5.66666667,18.3231789 7.65651222,16.3333333 10.1111111,16.3333333 L10.3333333,16.3333333 L10.3333333,13.6224568 C8.70186584,13.4044842 7.29923918,12.3969981 6.46902044,10.9681062 C3.02614798,10.6296444 0.333333333,7.63911968 0.333333333,4 C0.333333333,3.44771525 0.767481455,3 1.3030303,3 L5.66666667,3 L5.66666667,0.333333333 L16.3333333,0.333333333 L16.3333333,3 L20.6969697,3 C21.2325185,3 21.6666667,3.44771525 21.6666667,4 C21.6666667,7.63911968 18.973852,10.6296444 15.5309796,10.9681062 C14.7007608,12.3969981 13.2981342,13.4044842 11.6666667,13.6224568 L11.6666667,16.3333333 Z M5.88268582,9.56750357 C5.74209824,9.05534548 5.66666667,8.51330142 5.66666667,7.95238095 L5.66666667,4.33333333 L1.66666667,4.33333333 C1.73817242,4.78296318 1.84513073,5.21616074 1.98365517,5.62796538 C2.66843868,7.6636858 4.12461413,9.17662019 5.88268582,9.56750357 Z M16.1222383,9.54945465 C17.8338624,9.13463385 19.2497334,7.65374558 19.9298558,5.66840037 C20.0750553,5.24454862 20.1867208,4.79770469 20.2605709,4.33333333 L16.3333333,4.33333333 L16.3333333,7.95238095 C16.3333333,8.50671681 16.2596623,9.04261683 16.1222383,9.54945465 Z M10.9999124,17.6666667 C7.99990701,17.6666667 7.43019562,18.7797435 7,20.3333333 L15,20.3333333 C14.5698044,18.7797435 13.9999178,17.6666667 10.9999124,17.6666667 Z M7,1.66666667 L7,8.06666667 C7,10.4230816 8.790861,12.3333333 11,12.3333333 C13.209139,12.3333333 15,10.4230816 15,8.06666667 L15,1.66666667 L7,1.66666667 Z" id="path-1"></path>
    </defs>
    <g id="Page-1" stroke="none" stroke-width="1" fill="none" fill-rule="evenodd">
        <g id="OfiliateOne_faq" transform="translate(-29.000000, -328.000000)">
            <g id="Group-13" transform="translate(0.000000, 63.000000)">
                <g id="24/attach-copy-47" transform="translate(29.000000, 265.000000)">
                    <mask id="mask-2" fill="white">
                        <use xlink:href="#path-1"></use>
                    </mask>
                    <use id="Combined-Shape" stroke="#FFFFFF" stroke-width="0.3" fill="#1D1E23" fill-rule="nonzero" xlink:href="#path-1"></use>
                </g>
            </g>
        </g>
    </g>
</svg>