<?xml version="1.0" encoding="UTF-8"?>
<svg width="51px" height="51px" viewBox="0 0 51 51" version="1.1" xmlns="http://www.w3.org/2000/svg" xmlns:xlink="http://www.w3.org/1999/xlink">
    <!-- Generator: Sketch 55.1 (78136) - https://sketchapp.com -->
    <title>Group 18</title>
    <desc>Created with Sketch.</desc>
    <defs>
        <path d="M31.245283,41.5384615 C40.4986577,41.5384615 48,34.9509312 48,27.6923077 C48,20.4336842 42.5660377,12.9230769 31.245283,12.9230769 C19.9245283,12.9230769 7.24528302,24.4615385 20.8301887,37.8461538 C23.5379953,40.5140377 11.082481,54.7629888 27.1698113,42.4615385 C27.9948373,41.8306683 30.0858862,41.5384615 31.245283,41.5384615 Z" id="path-1"></path>
    </defs>
    <g id="Page-1" stroke="none" stroke-width="1" fill="none" fill-rule="evenodd">
        <g id="OfiliateOne_faq" transform="translate(-323.000000, -479.000000)">
            <g id="Group-18" transform="translate(323.000000, 479.000000)">
                <path d="M4.95433438,33.2615087 C5.22318949,33.1397617 5.54936937,32.9677877 5.93178422,32.7436899 C7.21940705,31.9891337 9.08482625,30.6805029 11.6171889,28.7440888 C12.5583832,28.0243886 14.633727,27.6153846 16.3000912,27.6153846 C25.0881489,27.6153846 32.0548082,21.5176284 32.0548082,13.8461538 C32.0548082,5.72744516 26.6435188,1 16.3000912,1 C10.8390195,1 5.23228216,3.81792312 2.5977192,7.97739337 C-0.376977379,12.6738695 0.672556693,18.3836598 6.58683295,24.2107384 C7.7325024,25.3395166 7.45529408,26.9928474 6.30915962,29.8614534 C6.21037435,30.1086984 6.10504601,30.365204 5.97581226,30.6747051 C5.0996917,32.7729205 5.11378372,32.7374143 4.95433438,33.2615087 Z" id="Oval-Copy-3" stroke-opacity="0.32" stroke="#0C79F8" stroke-width="2"></path>
                <g id="Oval">
                    <path stroke="#0C79F8" stroke-width="2" d="M19.8995262,46.1845856 C20.1683813,46.0628386 20.4945612,45.8908646 20.876976,45.6667668 C22.1645989,44.9122106 24.030018,43.6035798 26.5623807,41.6671657 C27.503575,40.9474655 29.5789188,40.5384615 31.245283,40.5384615 C39.8214859,40.5384615 47,34.4911688 47,27.6923077 C47,19.9578931 40.9898756,13.9230769 31.245283,13.9230769 C25.7842113,13.9230769 20.177474,16.741 17.542911,20.9004703 C14.5682144,25.5969464 15.6177485,31.3067368 21.5320247,37.1338154 C22.6776942,38.2625935 22.4004859,39.9159244 21.2543514,42.7845303 C21.1555662,43.0317753 21.0502378,43.288281 20.9210041,43.597782 C20.0448835,45.6959974 20.0589755,45.6604912 19.8995262,46.1845856 Z" stroke-linejoin="square" fill="#FFFFFF" fill-rule="evenodd"></path>
                    <path stroke="#FFFFFF" stroke-width="3" d="M31.245283,43.0384615 C30.0858991,43.0384615 28.4676924,43.357374 28.0809572,43.6530976 C22.3527884,48.0332391 19.9624976,49.4339666 18.3907743,48.7089945 C17.0667276,48.0982655 17.0416002,46.9883236 17.5030254,45.4725076 C17.6223077,45.0806562 17.7832654,44.6447911 18.0062581,44.0935594 C18.0913453,43.8832262 18.1823454,43.6634774 18.3052327,43.3703493 C18.3145993,43.3480068 18.5465094,42.7962262 18.6140401,42.6344974 C18.7387204,42.3359014 18.8394453,42.0906065 18.9327949,41.8569662 C19.6528615,40.0547454 19.834576,38.9709605 19.7774346,38.9146616 C13.0703379,32.3064516 11.7857329,25.3178028 15.4309165,19.5627561 C18.5439458,14.6478792 24.9602384,11.4230769 31.245283,11.4230769 C42.3728871,11.4230769 49.5,18.5794705 49.5,27.6923077 C49.5,35.9759273 41.1163308,43.0384615 31.245283,43.0384615 Z"></path>
                </g>
                <g id="Group-2" transform="translate(26.264151, 25.846154)" fill="#0C79F8">
                    <ellipse id="Oval" cx="1.35849057" cy="1.38461538" rx="1.35849057" ry="1.38461538"></ellipse>
                    <ellipse id="Oval" cx="5.88679245" cy="1.38461538" rx="1.35849057" ry="1.38461538"></ellipse>
                    <ellipse id="Oval" cx="10.4150943" cy="1.38461538" rx="1.35849057" ry="1.38461538"></ellipse>
                </g>
            </g>
        </g>
    </g>
</svg>