<?xml version="1.0" encoding="UTF-8"?>
<svg width="20px" height="4px" viewBox="0 0 20 4" version="1.1" xmlns="http://www.w3.org/2000/svg" xmlns:xlink="http://www.w3.org/1999/xlink">
    <!-- Generator: Sketch 55.1 (78136) - https://sketchapp.com -->
    <title>24/attach copy 23</title>
    <desc>Created with Sketch.</desc>
    <defs>
        <path d="M8,17.3333333 C7.26362033,17.3333333 6.66666667,16.7363797 6.66666667,16 C6.66666667,15.2636203 7.26362033,14.6666667 8,14.6666667 C8.73637967,14.6666667 9.33333333,15.2636203 9.33333333,16 C9.33333333,16.7363797 8.73637967,17.3333333 8,17.3333333 Z M16,17.3333333 C15.2636203,17.3333333 14.6666667,16.7363797 14.6666667,16 C14.6666667,15.2636203 15.2636203,14.6666667 16,14.6666667 C16.7363797,14.6666667 17.3333333,15.2636203 17.3333333,16 C17.3333333,16.7363797 16.7363797,17.3333333 16,17.3333333 Z M24,17.3333333 C23.2636203,17.3333333 22.6666667,16.7363797 22.6666667,16 C22.6666667,15.2636203 23.2636203,14.6666667 24,14.6666667 C24.7363797,14.6666667 25.3333333,15.2636203 25.3333333,16 C25.3333333,16.7363797 24.7363797,17.3333333 24,17.3333333 Z" id="path-1"></path>
    </defs>
    <g id="Page-1" stroke="none" stroke-width="1" fill="none" fill-rule="evenodd">
        <g id="OfiliateOne_faq" transform="translate(-1399.000000, -84.000000)">
            <g id="24/dots" transform="translate(1393.000000, 70.000000)">
                <mask id="mask-2" fill="white">
                    <use xlink:href="#path-1"></use>
                </mask>
                <use id="Shape" fill="#28292C" fill-rule="evenodd" xlink:href="#path-1"></use>
                <g id="color/black" mask="url(#mask-2)"></g>
            </g>
        </g>
    </g>
</svg>