<?xml version="1.0" encoding="UTF-8"?>
<svg width="22px" height="16px" viewBox="0 0 22 16" version="1.1" xmlns="http://www.w3.org/2000/svg" xmlns:xlink="http://www.w3.org/1999/xlink">
    <!-- Generator: Sketch 55.1 (78136) - https://sketchapp.com -->
    <title>Balance stroke</title>
    <desc>Created with Sketch.</desc>
    <g id="Page-1" stroke="none" stroke-width="1" fill="none" fill-rule="evenodd">
        <g id="OfiliateOne_faq" transform="translate(-29.000000, -219.000000)" fill-rule="nonzero">
            <g id="Group-13" transform="translate(0.000000, 63.000000)">
                <g id="Group-12" transform="translate(28.000000, 136.000000)">
                    <g id="Balance/Outlined" transform="translate(0.000000, 16.000000)">
                        <rect id="Rectangle" opacity="0" x="0" y="0" width="24" height="24"></rect>
                        <path d="M9,19 C12.8659932,19 16,15.8659932 16,12 C16,8.13400675 12.8659932,5 9,5 C5.13400675,5 2,8.13400675 2,12 C2,15.8659932 5.13400675,19 9,19 Z M9,20 C4.581722,20 1,16.418278 1,12 C1,7.581722 4.581722,4 9,4 C13.418278,4 17,7.581722 17,12 C17,16.418278 13.418278,20 9,20 Z M7.71221694,10.3902295 C7.46218136,10.5074336 7.16447471,10.3997525 7.04727053,10.1497169 C6.93006635,9.89968136 7.03774748,9.60197471 7.28778306,9.48477053 L9.28778306,8.54727053 C9.61934452,8.3918511 10,8.63381944 10,9 L10,15 C10,15.2761424 9.77614237,15.5 9.5,15.5 C9.22385763,15.5 9,15.2761424 9,15 L9,9.78658116 L7.71221694,10.3902295 Z M14.7848175,5.10510032 C15.1794923,5.03601999 15.5855397,5 16,5 C19.8659932,5 23,8.13400675 23,12 C23,15.8659932 19.8659932,19 16,19 C15.5855397,19 15.1794923,18.96398 14.7848175,18.8948997 C15.1157971,18.6169164 15.4264713,18.3155405 15.7142946,17.9933175 C15.8089724,17.9977559 15.9042242,18 16,18 C19.3137085,18 22,15.3137085 22,12 C22,8.6862915 19.3137085,6 16,6 C15.9042242,6 15.8089724,6.00224407 15.7142946,6.0066825 C15.4264713,5.68445952 15.1157971,5.38308356 14.7848175,5.10510032 Z" id="Combined-Shape" fill="#2A2B30"></path>
                    </g>
                </g>
            </g>
        </g>
    </g>
</svg>