<?xml version="1.0" encoding="UTF-8"?>
<svg width="12px" height="14px" viewBox="0 0 12 14" version="1.1" xmlns="http://www.w3.org/2000/svg" xmlns:xlink="http://www.w3.org/1999/xlink">
    <!-- Generator: Sketch 55.1 (78136) - https://sketchapp.com -->
    <title>Copy</title>
    <desc>Created with Sketch.</desc>
    <g id="Page-1" stroke="none" stroke-width="1" fill="none" fill-rule="evenodd">
        <g id="OfiliateOne_faq" transform="translate(-514.000000, -24.000000)">
            <g id="Group" transform="translate(0.000000, -1.000000)">
                <g id="Copy/Two-Tone" transform="translate(512.000000, 24.000000)">
                    <rect id="bounds" x="0" y="0" width="16" height="16"></rect>
                    <rect id="Rectangle-Copy" fill-opacity="0.2" fill="#0C79F8" fill-rule="nonzero" x="6.66666667" y="5.33333333" width="6.66666667" height="8.66666667"></rect>
                    <path d="M7.33333333,5.33333333 C6.9651435,5.33333333 6.66666667,5.63181017 6.66666667,6 L6.66666667,13.3333333 C6.66666667,13.7015232 6.9651435,14 7.33333333,14 L12.6666667,14 C13.0348565,14 13.3333333,13.7015232 13.3333333,13.3333333 L13.3333333,6 C13.3333333,5.63181017 13.0348565,5.33333333 12.6666667,5.33333333 L7.33333333,5.33333333 Z M7.33333333,4.66666667 L12.6666667,4.66666667 C13.4030463,4.66666667 14,5.26362033 14,6 L14,13.3333333 C14,14.069713 13.4030463,14.6666667 12.6666667,14.6666667 L7.33333333,14.6666667 C6.59695367,14.6666667 6,14.069713 6,13.3333333 L6,6 C6,5.26362033 6.59695367,4.66666667 7.33333333,4.66666667 Z M10,4 L9.33333333,4 L9.33333333,2.66666667 C9.33333333,2.29847683 9.0348565,2 8.66666667,2 L3.33333333,2 C2.9651435,2 2.66666667,2.29847683 2.66666667,2.66666667 L2.66666667,10 C2.66666667,10.3681898 2.9651435,10.6666667 3.33333333,10.6666667 L5.3312008,10.6666667 L5.3312008,11.3333333 L3.33333333,11.3333333 C2.59695367,11.3333333 2,10.7363797 2,10 L2,2.66666667 C2,1.930287 2.59695367,1.33333333 3.33333333,1.33333333 L8.66666667,1.33333333 C9.40304633,1.33333333 10,1.930287 10,2.66666667 L10,4 Z" id="Shape" fill="#0C79F8" fill-rule="evenodd"></path>
                </g>
            </g>
        </g>
    </g>
</svg>