<?xml version="1.0" encoding="UTF-8"?>
<svg width="20px" height="20px" viewBox="0 0 20 20" version="1.1" xmlns="http://www.w3.org/2000/svg" xmlns:xlink="http://www.w3.org/1999/xlink">
    <!-- Generator: Sketch 55.1 (78136) - https://sketchapp.com -->
    <title>Help center</title>
    <desc>Created with Sketch.</desc>
    <g id="Page-1" stroke="none" stroke-width="1" fill="none" fill-rule="evenodd">
        <g id="OfiliateOne_faq" transform="translate(-30.000000, -441.000000)">
            <g id="Group-13" transform="translate(0.000000, 63.000000)">
                <g id="Help-center/Outlined" transform="translate(28.000000, 376.000000)">
                    <rect id="Rectangle" x="0" y="0" width="24" height="24"></rect>
                    <path d="M3.11311984,21 L12.4654126,21.0013161 C12.7821307,20.985051 13.0911168,20.9490558 13.4179192,20.88909 C17.7592724,20.2026627 21,16.4428128 21,12 C21,7.02943725 16.9705627,3 12,3 C7.02943725,3 3,7.02943725 3,12 C3,13.9992804 3.65247532,15.8968293 4.83901832,17.4525125 L5.30850259,18.068056 L3.07173466,20.9148515 C3.06444879,20.9241244 3.06048826,20.9355756 3.06048826,20.9473684 C3.06048826,20.976436 3.08405222,21 3.11311984,21 Z M3.11311984,22 C2.53176747,22 2.06048826,21.5287208 2.06048826,20.9473684 C2.06048826,20.7115117 2.13969894,20.4824884 2.28541632,20.2970299 L4.04389729,18.0589633 C2.76153952,16.3776568 2,14.2777619 2,12 C2,6.4771525 6.4771525,2 12,2 C17.5228475,2 22,6.4771525 22,12 C22,16.9872731 18.349082,21.1218285 13.5740928,21.8768196 C13.2292575,21.9404473 12.8767932,21.9815074 12.5167,22 L3.11311984,22 Z M12.5,13.5357811 C12.5,13.8119235 12.2761424,14.0357811 12,14.0357811 C11.7238576,14.0357811 11.5,13.8119235 11.5,13.5357811 C11.5,12.7522849 11.8602265,12.2983283 12.6838067,11.7033865 C12.7269125,11.6722475 12.9096896,11.5416027 12.9569727,11.5074037 C13.7232632,10.9531599 14,10.5744098 14,9.86853694 C14,8.7859181 13.150743,8 12,8 C10.9239416,8 10,8.90365275 10,9.86853694 C10,10.1446793 9.77614237,10.3685369 9.5,10.3685369 C9.22385763,10.3685369 9,10.1446793 9,9.86853694 C9,8.34633741 10.3765654,7 12,7 C13.6864576,7 15,8.21557635 15,9.86853694 C15,10.968996 14.5430717,11.5943616 13.5430273,12.3176753 C13.492791,12.3540102 13.3096939,12.4848837 13.2693839,12.5140031 C12.6844055,12.9365827 12.5,13.16897 12.5,13.5357811 Z M12.0007382,15.25 C12.4086765,15.25 12.743126,15.5771636 12.7498749,15.9868684 C12.7573738,16.4010755 12.4266738,16.7424962 12.0134863,16.75 L11.9999883,16.75 C11.5913001,16.75 11.2576006,16.4228364 11.2501017,16.0131316 C11.2433527,15.5989245 11.5733028,15.2567534 11.9872403,15.25 L12.0007382,15.25 Z" id="Combined-Shape" fill="#2A2B30" fill-rule="nonzero"></path>
                </g>
            </g>
        </g>
    </g>
</svg>