<?xml version="1.0" encoding="UTF-8"?>
<svg width="14px" height="14px" viewBox="0 0 14 14" version="1.1" xmlns="http://www.w3.org/2000/svg" xmlns:xlink="http://www.w3.org/1999/xlink">
    <!-- Generator: Sketch 55.1 (78136) - https://sketchapp.com -->
    <title>Notification</title>
    <desc>Created with Sketch.</desc>
    <g id="Page-1" stroke="none" stroke-width="1" fill="none" fill-rule="evenodd">
        <g id="OfiliateOne_faq" transform="translate(-1354.000000, -24.000000)">
            <g id="Group" transform="translate(0.000000, -1.000000)">
                <g id="Notification" transform="translate(1353.000000, 24.000000)">
                    <rect id="bounds" x="0" y="0" width="16" height="16"></rect>
                    <path d="M8.33333333,1.66595516 L8.33333333,1.33333333 C8.33333333,1.14923842 8.18409492,1 8,1 C7.81590508,1 7.66666667,1.14923842 7.66666667,1.33333333 L7.66666667,1.66595516 L8.33333333,1.66595516 Z" id="Path-3" stroke="#1D1E23"></path>
                    <path d="M13.6322958,1.66666667 C13.986474,1.66666667 14.2735921,1.95378479 14.2735921,2.30796295 C14.2735921,2.51722677 14.1714907,2.71332841 14.0000551,2.83333333 C12.9554944,3.56452581 12.3333884,4.75937714 12.3333884,6.03442594 L12.3333884,8.66666667 C12.3333884,11.0599006 10.393289,13 8.00005506,13 C5.60682115,13 3.66672173,11.0599006 3.66672173,8.66666667 L3.66672173,6.03442594 C3.66672173,4.75937714 3.04461574,3.56452581 2.00005506,2.83333333 C1.70990101,2.6302255 1.63933611,2.23035773 1.84244395,1.94020368 C1.96244887,1.76876807 2.15855051,1.66666667 2.36781433,1.66666667 L4.66378522,1.66666667 L13.6322958,1.66666667 Z" id="Rectangle" stroke="#1D1E23" stroke-linecap="round" stroke-linejoin="round" fill-rule="nonzero" transform="translate(8.000028, 7.333333) rotate(-180.000000) translate(-8.000028, -7.333333) "></path>
                    <path d="M9.86666667,13.3333333 L8,13.3333333 L9.43269192,14.0486291 C9.06760141,14.4355277 8.55292488,14.6666667 8,14.6666667 C7.19471259,14.6666667 6.47055533,14.1763883 6.1714791,13.4286977 L6,13 L10,13 L9.86666667,13.3333333 Z" id="Combined-Shape" fill="#1D1E23"></path>
                </g>
            </g>
        </g>
    </g>
</svg>