<?xml version="1.0" encoding="UTF-8"?>
<svg width="18px" height="20px" viewBox="0 0 18 20" version="1.1" xmlns="http://www.w3.org/2000/svg" xmlns:xlink="http://www.w3.org/1999/xlink">
    <!-- Generator: Sketch 55.1 (78136) - https://sketchapp.com -->
    <title>Referral stroke</title>
    <desc>Created with Sketch.</desc>
    <g id="Page-1" stroke="none" stroke-width="1" fill="none" fill-rule="evenodd">
        <g id="OfiliateOne_faq" transform="translate(-31.000000, -385.000000)">
            <g id="Group-13" transform="translate(0.000000, 63.000000)">
                <g id="Referral/Outlined" transform="translate(28.000000, 320.000000)">
                    <rect id="bounds" x="0" y="0" width="24" height="24"></rect>
                    <path d="M13.8540314,15.5293236 C14.5864016,14.5980737 15.723357,14 17,14 C19.209139,14 21,15.790861 21,18 C21,20.209139 19.209139,22 17,22 C14.790861,22 13,20.209139 13,18 C13,17.4258414 13.1209705,16.879937 13.3388144,16.3863839 L10.1459686,14.4706764 C9.41359835,15.4019263 8.27664298,16 7,16 C4.790861,16 3,14.209139 3,12 C3,9.790861 4.790861,8 7,8 C8.27664298,8 9.41359835,8.59807371 10.1459686,9.52932364 L13.3388144,7.61361615 C13.1209705,7.12006302 13,6.5741586 13,6 C13,3.790861 14.790861,2 17,2 C19.209139,2 21,3.790861 21,6 C21,8.209139 19.209139,10 17,10 C15.723357,10 14.5864016,9.40192629 13.8540314,8.47067636 L10.6611856,10.3863839 C10.8790295,10.879937 11,11.4258414 11,12 C11,12.5741586 10.8790295,13.120063 10.6611856,13.6136161 L13.8540314,15.5293236 L13.8540314,15.5293236 Z M7,15 C8.65685425,15 10,13.6568542 10,12 C10,10.3431458 8.65685425,9 7,9 C5.34314575,9 4,10.3431458 4,12 C4,13.6568542 5.34314575,15 7,15 Z M20,6 C20,4.34314575 18.6568542,3 17,3 C15.3431458,3 14,4.34314575 14,6 C14,7.65685425 15.3431458,9 17,9 C18.6568542,9 20,7.65685425 20,6 Z M17,15 C15.3431458,15 14,16.3431458 14,18 C14,19.6568542 15.3431458,21 17,21 C18.6568542,21 20,19.6568542 20,18 C20,16.3431458 18.6568542,15 17,15 Z" id="Shape" fill="#2A2B30" fill-rule="nonzero"></path>
                </g>
            </g>
        </g>
    </g>
</svg>