<?xml version="1.0" encoding="UTF-8"?>
<svg width="20px" height="20px" viewBox="0 0 20 20" version="1.1" xmlns="http://www.w3.org/2000/svg" xmlns:xlink="http://www.w3.org/1999/xlink">
    <!-- Generator: Sketch 55.1 (78136) - https://sketchapp.com -->
    <title>Statistic stroke</title>
    <desc>Created with Sketch.</desc>
    <g id="Page-1" stroke="none" stroke-width="1" fill="none" fill-rule="evenodd">
        <g id="OfiliateOne_faq" transform="translate(-30.000000, -274.000000)">
            <g id="Group-13" transform="translate(0.000000, 63.000000)">
                <g id="Statistic/Outlined" transform="translate(28.000000, 209.000000)">
                    <g id="Statistic-stroke" stroke-width="1" fill-rule="evenodd">
                        <rect id="bounds" x="0" y="0" width="24" height="24"></rect>
                    </g>
                    <path d="M15.2928932,9 L12.5,9 C12.2238576,9 12,8.77614237 12,8.5 C12,8.22385763 12.2238576,8 12.5,8 L16.5,8 C16.7761424,8 17,8.22385763 17,8.5 L17,12.5 C17,12.7761424 16.7761424,13 16.5,13 C16.2238576,13 16,12.7761424 16,12.5 L16,9.70710678 L12.3535534,13.3535534 C12.2020305,13.5050762 11.9708005,13.5431995 11.7786558,13.4483378 L10.0907101,12.6149995 L7.3546046,15.3674483 C7.15992475,15.563291 6.84334366,15.5642337 6.64750095,15.3695538 C6.45165824,15.174874 6.45071555,14.8582929 6.6453954,14.6624502 L9.63501245,11.6549756 C9.78646955,11.5026138 10.0183254,11.4640326 10.2109613,11.5591369 L11.8999187,12.3929746 L15.2928932,9 Z M12,21 C16.9705627,21 21,16.9705627 21,12 C21,7.02943725 16.9705627,3 12,3 C7.02943725,3 3,7.02943725 3,12 C3,16.9705627 7.02943725,21 12,21 Z M12,22 C6.4771525,22 2,17.5228475 2,12 C2,6.4771525 6.4771525,2 12,2 C17.5228475,2 22,6.4771525 22,12 C22,17.5228475 17.5228475,22 12,22 Z" id="Combined-Shape" fill="#2A2B30" fill-rule="nonzero"></path>
                </g>
            </g>
        </g>
    </g>
</svg>