<?xml version="1.0" encoding="UTF-8"?>
<svg width="14px" height="12px" viewBox="0 0 14 12" version="1.1" xmlns="http://www.w3.org/2000/svg" xmlns:xlink="http://www.w3.org/1999/xlink">
    <!-- Generator: Sketch 55.1 (78136) - https://sketchapp.com -->
    <title>Balance</title>
    <desc>Created with Sketch.</desc>
    <g id="Page-1" stroke="none" stroke-width="1" fill="none" fill-rule="evenodd">
        <g id="OfiliateOne_faq" transform="translate(-1068.000000, -25.000000)">
            <g id="Group" transform="translate(0.000000, -1.000000)">
                <g id="Purse/Outlined" transform="translate(1067.000000, 24.000000)">
                    <g id="purse" stroke-width="1" fill-rule="evenodd"></g>
                    <path d="M10.6666672,4.00081566 L10.6650353,2.66666667 L4,2.66666667 C2.8954305,2.66666667 2,3.56209717 2,4.66666667 L2,12.6666667 C2,13.0348565 2.29847683,13.3333333 2.66666667,13.3333333 L13.3333333,13.3333333 C13.7015232,13.3333333 14,13.0348565 14,12.6666667 L14,5.33333333 C14,4.9651435 13.7015232,4.66666667 13.3333333,4.66666667 L3.66666667,4.66666667 C3.48257175,4.66666667 3.33333333,4.51742825 3.33333333,4.33333333 C3.33333333,4.14923842 3.48257175,4 3.66666667,4 L13.3333333,4 C14.069713,4 14.6666667,4.59695367 14.6666667,5.33333333 L14.6666667,12.6666667 C14.6666667,13.4030463 14.069713,14 13.3333333,14 L2.66666667,14 C1.930287,14 1.33333333,13.4030463 1.33333333,12.6666667 L1.33333333,4.66666667 C1.33333333,3.19390733 2.52724067,2 4,2 L10.7316205,2 C11.0629913,2 11.3316205,2.26862915 11.3316205,2.6 L11.3333333,4 L10.6666672,4.00081566 Z M11.6666667,10 C11.1143819,10 10.6666667,9.55228475 10.6666667,9 C10.6666667,8.44771525 11.1143819,8 11.6666667,8 C12.2189514,8 12.6666667,8.44771525 12.6666667,9 C12.6666667,9.55228475 12.2189514,10 11.6666667,10 Z M11.6666667,9.33333333 C11.8507616,9.33333333 12,9.18409492 12,9 C12,8.81590508 11.8507616,8.66666667 11.6666667,8.66666667 C11.4825718,8.66666667 11.3333333,8.81590508 11.3333333,9 C11.3333333,9.18409492 11.4825718,9.33333333 11.6666667,9.33333333 Z" id="Combined-Shape" fill="#2A2B30" fill-rule="nonzero"></path>
                </g>
            </g>
        </g>
    </g>
</svg>