<?xml version="1.0" encoding="UTF-8"?>
<svg width="20px" height="20px" viewBox="0 0 20 20" version="1.1" xmlns="http://www.w3.org/2000/svg" xmlns:xlink="http://www.w3.org/1999/xlink">
    <!-- Generator: Sketch 55.1 (78136) - https://sketchapp.com -->
    <title> Promo stroke</title>
    <desc>Created with Sketch.</desc>
    <g id="Page-1" stroke="none" stroke-width="1" fill="none" fill-rule="evenodd">
        <g id="OfiliateOne_faq" transform="translate(-31.000000, -161.000000)">
            <g id="Group-13" transform="translate(0.000000, 63.000000)">
                <g id="Group-11" transform="translate(29.000000, 80.000000)">
                    <g id="-Promo/Outlined" transform="translate(0.000000, 16.000000)">
                        <rect id="bounds" x="0" y="0" width="24" height="24"></rect>
                        <path d="M9.95296888,16 L11.0016009,16 L12.3989978,19.9636286 C12.4576251,20.1539519 12.5016009,20.3172015 12.5016009,20.5099699 C12.5016009,21.3383971 11.830028,22.0099699 11.0016009,22.0099699 C10.3870723,22.0099699 9.85885587,21.6404238 9.62705501,21.1114349 L7.00160088,16 L8.10468191,16 L10.5429781,20.710081 C10.6222182,20.8909136 10.8008629,21.0099699 11.0016009,21.0099699 C11.2777433,21.0099699 11.5016009,20.7861123 11.5016009,20.5099699 C11.5016009,20.4649838 11.4904754,20.411125 11.4447638,20.2626896 L9.95296888,16 Z M17,3 L16.6666667,3 C16.4502965,3 16.2397628,3.07017787 16.0666667,3.2 L12.6,5.8 C12.4252864,5.93103519 12.2183882,6.00127286 12,5.99998255 C8.67448634,6.00000188 7.00781968,6.0000077 7,6 C4.80712821,6 3,7.80712821 3,10 C3,12.2162106 4.78382804,13.9869061 7,14 L12.0059082,14.0000175 C12.2202539,14.0012839 12.4285205,14.0713904 12.6,14.2 L16.0666667,16.8 C16.2397628,16.9298221 16.4502965,17 16.6666667,17 L17,17 L17,3 Z M18,18 L16.6666667,18 C16.2339262,18 15.812859,17.8596443 15.4666667,17.6 L12,15 L6.99991273,15 C4.23377153,14.9836567 2,12.7661895 2,10 C2,7.25484346 4.25484346,5 7,5 C7.01963626,5 8.68630292,5 12,5 L15.4666667,2.4 C15.812859,2.14035574 16.2339262,2 16.6666667,2 L18,2 L18,18 Z M19.0016009,11 L20.0016009,11 C20.5538856,11 21.0016009,10.5522847 21.0016009,10 C21.0016009,9.44771525 20.5538856,9 20.0016009,9 L19.0016009,9 L19.0016009,8 L20.0016009,8 C21.1061704,8 22.0016009,8.8954305 22.0016009,10 C22.0016009,11.1045695 21.1061704,12 20.0016009,12 L19.0016009,12 L19.0016009,11 Z" id="Shape" fill="#2A2B30" fill-rule="nonzero"></path>
                    </g>
                </g>
            </g>
        </g>
    </g>
</svg>