<?xml version="1.0" encoding="UTF-8"?>
<svg width="108px" height="16px" viewBox="0 0 108 16" version="1.1" xmlns="http://www.w3.org/2000/svg" xmlns:xlink="http://www.w3.org/1999/xlink">
    <!-- Generator: Sketch 55.1 (78136) - https://sketchapp.com -->
    <title>A1_3</title>
    <desc>Created with Sketch.</desc>
    <g id="Page-1" stroke="none" stroke-width="1" fill="none" fill-rule="evenodd">
        <g id="OfiliateOne_faq" transform="translate(-24.000000, -23.000000)">
            <g id="Group" transform="translate(0.000000, -1.000000)">
                <g id="A1_3" transform="translate(24.000000, 23.615385)">
                    <g id="Group-2" transform="translate(0.000000, 0.384615)">
                        <polygon id="Path" fill="#0C79F8" points="67.6269556 -2.66453526e-14 -1.98951966e-13 -2.66453526e-14 -1.98951966e-13 15.7538462 71.027027 15.7538462 71.027027 3.59769081 67.6269556 3.59769081"></polygon>
                        <path d="M75.8918919,13.6528199 C76.7421558,13.6433214 77.5308885,13.5036682 78.25809,13.2339458 C79.0252058,12.9544683 79.6797843,12.5630628 80.2220684,12.0598149 C80.7642715,11.5426188 81.1874604,10.934631 81.4916349,10.2356804 C81.8090063,9.5228671 81.9674492,8.74005609 81.9674492,7.88740135 C81.9674492,7.03474661 81.8156452,6.25896959 81.5114707,5.5600703 C81.2072961,4.84718857 80.7774683,4.23914944 80.2220684,3.73594435 C79.6797843,3.21875682 79.0317637,2.82038576 78.2779257,2.54082263 C77.5469999,2.25111923 76.7517093,2.10437211 75.8918919,2.10058984 L75.8918919,5.39258058 C76.1965522,5.39693618 76.4827532,5.45975446 76.7504949,5.5810354 C77.0413917,5.70683453 77.2860591,5.88156363 77.4844972,6.10521414 C77.6960511,6.3288561 77.8613757,6.5944368 77.98039,6.90195626 C78.1126821,7.19549327 78.1787471,7.50999539 78.1787471,7.84547115 C78.1787471,8.19487801 78.1126821,8.52338823 77.98039,8.83093336 C77.8613757,9.12444471 77.6960511,9.38304275 77.4844972,9.60672749 C77.2860591,9.83032666 77.0413917,10.0050643 76.7504949,10.1308549 C76.4827532,10.2521957 76.1965522,10.3150055 75.8918919,10.3193696 L75.8918919,13.6528199 Z M87.6250801,2.49889243 L84.0344113,2.49889243 L84.0344113,13.2549965 L87.6250801,13.2549965 L87.6250801,7.50999539 C87.6250801,6.79712222 87.7837658,6.25197837 88.1011372,5.87457242 C88.4322721,5.48319258 88.9018523,5.28749838 89.5098776,5.28749838 C89.7349522,5.28749838 89.9462633,5.32244591 90.1446204,5.39233242 C90.3429775,5.46222748 90.5219037,5.5810354 90.6805894,5.74877328 C90.865183,5.94446748 90.9906742,6.21004818 91.0570631,6.54551539 C91.136406,6.86700872 91.1760774,7.29333609 91.1760774,7.82450606 L91.1760774,13.2549965 L94.7667462,13.2549965 L94.7667462,6.41971626 C94.7667462,5.8466161 94.7141208,5.33641979 94.6080605,4.88912732 C94.5020001,4.4418263 94.303643,4.03646403 94.0129891,3.6730405 C93.6559463,3.22574804 93.2195606,2.88328105 92.7038321,2.64565666 C92.2010575,2.39404984 91.5930322,2.2682507 90.8789465,2.2682507 C90.2045323,2.2682507 89.6159379,2.38007596 89.1131633,2.60372647 C88.6103887,2.81339455 88.1149007,3.2327307 87.6250801,3.86174348 L87.6250801,2.49889243 Z M103.913034,5.03589155 C104.28303,5.35738489 104.528346,5.78372081 104.64736,6.31488222 L100.540963,6.31488222 C100.633259,5.7557645 100.851857,5.32244591 101.195136,5.01492646 C101.552179,4.70741556 102.008805,4.55365156 102.564205,4.55365156 C103.092888,4.55365156 103.543037,4.71439822 103.913034,5.03589155 Z M102.623308,10.9695443 C101.169228,10.9695443 100.441379,10.15182 100.441379,8.51645692 L108,8.51645692 L108,8.11803452 C108,7.18151939 107.873699,6.34283853 107.622717,5.60200049 C107.371734,4.84718857 107.007405,4.21119313 106.531348,3.6940056 C106.055291,3.17681807 105.473983,2.78543823 104.785805,2.51985753 C104.098437,2.24029439 103.324439,2.10051282 102.464622,2.10051282 C101.59185,2.10051282 100.804899,2.24029439 100.104577,2.51985753 C99.4163991,2.78543823 98.8278047,3.16983541 98.3387936,3.6730405 C97.8497826,4.1762456 97.4724993,4.79127595 97.2077532,5.51813155 C96.9438168,6.23101328 96.811039,7.03474661 96.811039,7.92934865 C96.811039,8.79593448 96.9502938,9.5787455 97.2279937,10.2776106 C97.5056937,10.9765612 97.895931,11.5776177 98.397896,12.08078 C98.9144341,12.5840279 99.5289364,12.9754334 100.243022,13.2549965 C100.957108,13.5205259 101.744059,13.6533333 102.603877,13.6533333 C105.407594,13.6533333 107.159613,12.4232384 107.860745,9.96313412 L104.389091,9.96313412 C103.992376,10.6341028 103.403782,10.9695443 102.623308,10.9695443 Z" id="Shape" fill="#1B0D29"></path>
                    </g>
                    <path d="M13.0626847,11.8307692 L14.0410258,11.8307692 L10.4736169,2.96923077 L6.81081081,11.8307692 L7.78915192,11.8307692 L8.74367463,9.44741049 L12.1320956,9.44741049 L13.0626847,11.8307692 Z M9.08963014,8.5599934 L10.4498231,5.17511484 L11.7860578,8.5599934 L9.08963014,8.5599934 Z M19.9835239,3.3749109 L16.3565072,3.3749109 L16.3565072,11.8307692 L17.2394265,11.8307692 L17.2394265,7.64723279 L19.8881021,7.64723279 L19.8881021,6.75980696 L17.2394265,6.75980696 L17.2394265,4.26233673 L19.9835239,4.26233673 L19.9835239,3.3749109 Z M26.3498627,3.3749109 L22.722846,3.3749109 L22.722846,11.8307692 L23.6057654,11.8307692 L23.6057654,7.64723279 L26.2544409,7.64723279 L26.2544409,6.75980696 L23.6057654,6.75980696 L23.6057654,4.26233673 L26.3498627,4.26233673 L26.3498627,3.3749109 Z M29.0891849,3.3749109 L29.0891849,11.8307692 L29.9721042,11.8307692 L29.9721042,3.3749109 L29.0891849,3.3749109 Z M33.2184216,3.3749109 L33.2184216,11.8307692 L36.2967012,11.8307692 L36.2967012,10.9433521 L34.101341,10.9433521 L34.101341,3.3749109 L33.2184216,3.3749109 Z M38.6875979,3.3749109 L38.6875979,11.8307692 L39.5705172,11.8307692 L39.5705172,3.3749109 L38.6875979,3.3749109 Z M48.1381442,11.8307692 L49.1164853,11.8307692 L45.5490764,2.96923077 L41.8862456,11.8307692 L42.8645867,11.8307692 L43.8191341,9.44741049 L47.2075551,9.44741049 L48.1381442,11.8307692 Z M44.1650896,8.5599934 L45.5252827,5.17511484 L46.8615173,8.5599934 L44.1650896,8.5599934 Z M54.7855616,4.26233673 L54.7855616,3.3749109 L50.0369476,3.3749109 L50.0369476,4.26233673 L51.9698361,4.26233673 L51.9698361,11.8307692 L52.8526731,11.8307692 L52.8526731,4.26233673 L54.7855616,4.26233673 Z M61.2972973,3.3749109 L57.1691309,3.3749109 L57.1691309,11.8307692 L61.2972973,11.8307692 L61.2972973,10.9433521 L58.0520502,10.9433521 L58.0520502,7.65990893 L61.2017932,7.65990893 L61.2017932,6.77248309 L58.0520502,6.77248309 L58.0520502,4.26233673 L61.2972973,4.26233673 L61.2972973,3.3749109 Z" id="Shape" fill="#FFFFFF" fill-rule="nonzero"></path>
                </g>
            </g>
        </g>
    </g>
</svg>