<?xml version="1.0" encoding="UTF-8"?>
<svg width="32px" height="32px" viewBox="0 0 32 32" version="1.1" xmlns="http://www.w3.org/2000/svg" xmlns:xlink="http://www.w3.org/1999/xlink">
    <!-- Generator: Sketch 55.1 (78136) - https://sketchapp.com -->
    <title>Group 17</title>
    <desc>Created with Sketch.</desc>
    <g id="Page-1" stroke="none" stroke-width="1" fill="none" fill-rule="evenodd">
        <g id="OfiliateOne_faq" transform="translate(-1169.000000, -214.000000)">
            <g id="Group" transform="translate(1153.000000, 62.000000)">
                <g id="Group-23">
                    <g id="Group-17" transform="translate(16.000000, 152.000000)">
                        <circle id="Backdrop" fill="#FFF9E0" cx="16" cy="16" r="16"></circle>
                        <path d="M20.4094005,17.2047003 L21.7236068,17.8618034 C21.8929988,17.9464994 22,18.119631 22,18.309017 L22,18.5 C22,18.7761424 21.7761424,19 21.5,19 L10.5,19 C10.2238576,19 10,18.7761424 10,18.5 L10,18.309017 C10,18.119631 10.1070012,17.9464994 10.2763932,17.8618034 L11.5905995,17.2047003 C11.8014132,17.0588369 11.9475396,16.8376648 12,16.5885709 L12,14 C12,11.790861 13.790861,10 16,10 C18.209139,10 20,11.790861 20,14 L20,16.5885709 C20.0524604,16.8376648 20.1985868,17.0588369 20.4094005,17.2047003 Z M14,20 L18,20 C18,21.1045695 17.1045695,22 16,22 C14.8954305,22 14,21.1045695 14,20 Z" id="Bell" fill-opacity="0.64" fill="#FF8F00"></path>
                    </g>
                </g>
            </g>
        </g>
    </g>
</svg>