<?xml version="1.0" encoding="UTF-8"?>
<svg width="32px" height="32px" viewBox="0 0 32 32" version="1.1" xmlns="http://www.w3.org/2000/svg" xmlns:xlink="http://www.w3.org/1999/xlink">
    <!-- Generator: Sketch 55.1 (78136) - https://sketchapp.com -->
    <title>Group 17</title>
    <desc>Created with Sketch.</desc>
    <g id="Page-1" stroke="none" stroke-width="1" fill="none" fill-rule="evenodd">
        <g id="OfiliateOne_faq" transform="translate(-1169.000000, -351.000000)">
            <g id="Group" transform="translate(1153.000000, 62.000000)">
                <g id="Group-23">
                    <g id="Group-22" transform="translate(16.000000, 289.000000)">
                        <g id="Group-17">
                            <circle id="Backdrop" fill="#EDFBF5" cx="16" cy="16" r="16"></circle>
                            <path d="M13.6738844,20.2787844 L10.40875,17.01365 C9.86375,16.46865 9.86375,15.58565 10.40875,15.04065 C10.95375,14.49565 11.83775,14.49565 12.38275,15.04065 L14.68455,17.34245 L19.61825,12.40875 C20.16325,11.86375 21.04625,11.86375 21.59125,12.40875 C22.13625,12.95375 22.13625,13.83775 21.59125,14.38275 L15.6916252,20.2823748 C15.6850827,20.2891836 15.6784576,20.2959424 15.67175,20.30265 C15.4695614,20.5048386 15.2207155,20.6320176 14.9598309,20.684187 C14.9597602,20.6842011 14.9596895,20.6842152 14.9596188,20.6842294 C14.9429347,20.6875631 14.9262013,20.69059 14.9094278,20.6933101 C14.4814138,20.7628975 14.0272043,20.6327043 13.69725,20.30275 C13.6893467,20.2948321 13.6815581,20.2868429 13.6738844,20.2787844 Z" id="Check" fill="#14C679"></path>
                        </g>
                    </g>
                </g>
            </g>
        </g>
    </g>
</svg>