<?xml version="1.0" encoding="UTF-8"?>
<svg width="32px" height="32px" viewBox="0 0 32 32" version="1.1" xmlns="http://www.w3.org/2000/svg" xmlns:xlink="http://www.w3.org/1999/xlink">
    <!-- Generator: Sketch 55.1 (78136) - https://sketchapp.com -->
    <title>Group 17</title>
    <desc>Created with Sketch.</desc>
    <g id="Page-1" stroke="none" stroke-width="1" fill="none" fill-rule="evenodd">
        <g id="OfiliateOne_faq" transform="translate(-1169.000000, -439.000000)">
            <g id="Group" transform="translate(1153.000000, 62.000000)">
                <g id="Group-23">
                    <g id="Group-22" transform="translate(16.000000, 377.000000)">
                        <g id="Group-17">
                            <circle id="Backdrop" fill="#E8F2FF" cx="16" cy="16" r="16"></circle>
                            <path d="M16.5918898,10.3525029 L18.0716106,13.2523722 L21.4313646,13.693173 C21.9757474,13.7644347 22.1934232,14.4011085 21.7974056,14.7628605 L19.3515735,16.9960734 L19.9489134,20.1681341 C20.0454876,20.6821478 19.4754056,21.0758333 18.9909876,20.8293411 L15.9999992,19.3095071 L13.0090108,20.8293411 C12.5245928,21.0758333 11.9545108,20.6821478 12.051085,20.1681341 L12.6484249,16.9960734 L10.2025986,14.7628605 C9.80657519,14.4011085 10.024251,13.7644347 10.5686338,13.693173 L13.9283878,13.2523722 L15.4081086,10.3525029 C15.6475929,9.88249902 16.3520187,9.88249902 16.5918898,10.3525029" id="Star-Copy" fill="#0C79F8"></path>
                        </g>
                    </g>
                </g>
            </g>
        </g>
    </g>
</svg>